name Walk8.mot
datacolumns 19
datarows 10
range 2.09500000 2.10400000
endheader

                time	   L_ground_force_vx	   L_ground_force_vy	   L_ground_force_vz	   L_ground_force_px	   L_ground_force_py	   L_ground_force_pz	   R_ground_force_vx	   R_ground_force_vy	   R_ground_force_vz	   R_ground_force_px	   R_ground_force_py	   R_ground_force_pz	   L_ground_torque_x	   L_ground_torque_y	   L_ground_torque_z	   R_ground_torque_x	   R_ground_torque_y	   R_ground_torque_z	
          2.09500000	          0.00000000	          0.00000000	          0.00000000	          0.00000000	          0.00000000	          0.00000000	          0.00000000	          0.00000000	          0.00000000	          0.00000000	          0.00000000	          0.00000000	          0.00000000	          0.00000000	          0.00000000	          0.00000000	          0.00000000	          0.00000000	
          2.09600000	          0.00000000	          0.00000000	          0.00000000	          0.00000000	          0.00000000	          0.00000000	          0.00000000	          0.00000000	          0.00000000	          0.00000000	          0.00000000	          0.00000000	          0.00000000	          0.00000000	          0.00000000	          0.00000000	          0.00000000	          0.00000000	
          2.09700000	          0.00000000	          0.00000000	          0.00000000	          0.00000000	          0.00000000	          0.00000000	          0.00000000	          0.00000000	          0.00000000	          0.00000000	          0.00000000	          0.00000000	          0.00000000	          0.00000000	          0.00000000	          0.00000000	          0.00000000	          0.00000000	
          2.09800000	          0.00000000	          0.00000000	          0.00000000	          0.00000000	          0.00000000	          0.00000000	         -3.77769772	         13.64981228	         -4.29171419	         -0.55486576	          0.00000000	         -0.06685702	          0.00000000	          0.00000000	          0.00000000	          0.00000000	          0.00113948	          0.00000000	
          2.09900000	          0.00000000	          0.00000000	          0.00000000	          0.00000000	          0.00000000	          0.00000000	         -4.90336021	         22.13035645	         -6.05755710	         -0.55621068	          0.00000000	         -0.06945229	          0.00000000	          0.00000000	          0.00000000	          0.00000000	         -0.00862013	          0.00000000	
          2.10000000	          0.00000000	          0.00000000	          0.00000000	          0.00000000	          0.00000000	          0.00000000	         -5.74825495	         33.12499567	         -7.84710030	         -0.55704514	          0.00000000	         -0.07124733	          0.00000000	          0.00000000	          0.00000000	          0.00000000	         -0.02600905	          0.00000000	
          2.10100000	          0.00000000	          0.00000000	          0.00000000	          0.00000000	          0.00000000	          0.00000000	         -6.31592622	         47.04917396	         -9.67854248	         -0.55729003	          0.00000000	         -0.07230893	          0.00000000	          0.00000000	          0.00000000	          0.00000000	         -0.05150929	          0.00000000	
          2.10200000	          0.00000000	          0.00000000	          0.00000000	          0.00000000	          0.00000000	          0.00000000	         -6.62601807	         64.16619037	        -11.60009265	         -0.55697783	          0.00000000	         -0.07278741	          0.00000000	          0.00000000	          0.00000000	          0.00000000	         -0.08511257	          0.00000000	
          2.10300000	          0.00000000	          0.00000000	          0.00000000	          0.00000000	          0.00000000	          0.00000000	         -6.63418619	         84.33224951	        -13.60132939	         -0.55625260	          0.00000000	         -0.07278107	          0.00000000	          0.00000000	          0.00000000	          0.00000000	         -0.12869080	          0.00000000	
          2.10400000	          0.00000000	          0.00000000	          0.00000000	          0.00000000	          0.00000000	          0.00000000	         -6.22665453	        106.85658254	        -15.58335859	         -0.55531108	          0.00000000	         -0.07243419	          0.00000000	          0.00000000	          0.00000000	          0.00000000	         -0.18331141	          0.00000000	
